<svg width="100" height="100" viewBox="0 0 100 100" fill="none" xmlns="http://www.w3.org/2000/svg">
<path d="M36.6667 69.4423C34 69.4423 31.3333 67.1202 30 66.125C23.3333 61.4808 21.3333 59.8221 20 58.8269V72.7596C20 74.5914 21.4927 76.0769 23.3333 76.0769H50C51.8406 76.0769 53.3333 74.5914 53.3333 72.7596V58.8269C52 59.8221 50 61.4808 43.3333 66.125C42 67.1202 39.3333 69.4423 36.6667 69.4423ZM50 49.5385H23.3333C21.4927 49.5385 20 51.024 20 52.8558V54.5144C22.6667 56.5048 22.3333 56.5048 32 63.4712C33 64.1346 35 66.125 36.6667 66.125C38.3333 66.125 40.3333 64.1346 41.3333 63.8029C51 56.8365 50.6667 56.8365 53.3333 54.8462V52.8558C53.3333 51.024 51.8406 49.5385 50 49.5385ZM76.6667 39.5865H43.3333C41.4927 39.5865 40 41.0721 40 42.9038V46.2212H50C53.4594 46.2212 56.3115 48.8563 56.6365 52.2151L56.6667 52.1923V66.125H76.6667C78.5073 66.125 80 64.6395 80 62.8077V42.9038C80 41.0721 78.5073 39.5865 76.6667 39.5865ZM73.3333 52.8558H66.6667V46.2212H73.3333V52.8558ZM36.6667 42.9038C36.6667 39.2455 39.6573 36.2692 43.3333 36.2692H66.6667V26.3173C66.6667 24.4855 65.174 23 63.3333 23H30C28.1594 23 26.6667 24.4855 26.6667 26.3173V46.2212H36.6667V42.9038Z" fill="#EDEDED"/>
</svg>
