<svg width="70" height="70" viewBox="0 0 70 70" fill="none" xmlns="http://www.w3.org/2000/svg">
<path d="M62.5 0H7.5C5.51088 0 3.60322 0.790177 2.1967 2.1967C0.790176 3.60322 0 5.51088 0 7.5L0 62.5C0 64.4891 0.790176 66.3968 2.1967 67.8033C3.60322 69.2098 5.51088 70 7.5 70H28.9453V46.2016H19.1016V35H28.9453V26.4625C28.9453 16.7516 34.7266 11.3875 43.5813 11.3875C47.8219 11.3875 52.2563 12.1438 52.2563 12.1438V21.675H47.3703C42.5563 21.675 41.0547 24.6625 41.0547 27.7266V35H51.8016L50.0828 46.2016H41.0547V70H62.5C64.4891 70 66.3968 69.2098 67.8033 67.8033C69.2098 66.3968 70 64.4891 70 62.5V7.5C70 5.51088 69.2098 3.60322 67.8033 2.1967C66.3968 0.790177 64.4891 0 62.5 0V0Z" fill="#EDEDED"/>
</svg>
