<svg width="40" height="40" viewBox="0 0 40 40" fill="none" xmlns="http://www.w3.org/2000/svg">
<path d="M19.7437 20.602L13.103 27.2096C12.644 27.6663 11.9019 27.6663 11.4478 27.2096L10.3442 26.1116C9.88525 25.6549 9.88525 24.9164 10.3442 24.4645L15.0513 19.7809L10.3442 15.0973C9.88525 14.6406 9.88525 13.9021 10.3442 13.4503L11.4429 12.3425C11.9019 11.8858 12.644 11.8858 13.0981 12.3425L19.7388 18.9501C20.2026 19.4068 20.2026 20.1453 19.7437 20.602ZM29.1187 18.9501L22.478 12.3425C22.019 11.8858 21.2769 11.8858 20.8228 12.3425L19.7192 13.4406C19.2603 13.8973 19.2603 14.6357 19.7192 15.0876L24.4263 19.7712L19.7192 24.4548C19.2603 24.9115 19.2603 25.65 19.7192 26.1019L20.8228 27.1999C21.2817 27.6566 22.0239 27.6566 22.478 27.1999L29.1187 20.5923C29.5776 20.1453 29.5776 19.4068 29.1187 18.9501Z" fill="#DA0037"/>
</svg>
