<svg width="70" height="70" viewBox="0 0 70 70" fill="none" xmlns="http://www.w3.org/2000/svg">
<path d="M35.0078 17.0529C25.0759 17.0529 17.0647 25.0658 17.0647 35C17.0647 44.9342 25.0759 52.9471 35.0078 52.9471C44.9398 52.9471 52.9509 44.9342 52.9509 35C52.9509 25.0658 44.9398 17.0529 35.0078 17.0529ZM35.0078 46.668C28.5895 46.668 23.3424 41.4353 23.3424 35C23.3424 28.5647 28.5739 23.332 35.0078 23.332C41.4417 23.332 46.6732 28.5647 46.6732 35C46.6732 41.4353 41.4261 46.668 35.0078 46.668V46.668ZM57.8701 16.3188C57.8701 18.6461 55.9961 20.5049 53.6849 20.5049C51.3581 20.5049 49.4997 18.6305 49.4997 16.3188C49.4997 14.007 51.3737 12.1327 53.6849 12.1327C55.9961 12.1327 57.8701 14.007 57.8701 16.3188ZM69.754 20.5673C69.4886 14.9598 68.208 9.99275 64.101 5.90037C60.0095 1.80799 55.0435 0.527167 49.4373 0.246011C43.6592 -0.0820038 26.3408 -0.0820038 20.5627 0.246011C14.9721 0.511547 10.0061 1.79237 5.89905 5.88475C1.79197 9.97713 0.52705 14.9442 0.245956 20.5517C-0.0819855 26.331 -0.0819855 43.6533 0.245956 49.4327C0.511433 55.0402 1.79197 60.0073 5.89905 64.0996C10.0061 68.192 14.9565 69.4728 20.5627 69.754C26.3408 70.082 43.6592 70.082 49.4373 69.754C55.0435 69.4884 60.0095 68.2076 64.101 64.0996C68.1924 60.0073 69.473 55.0402 69.754 49.4327C70.082 43.6533 70.082 26.3466 69.754 20.5673V20.5673ZM62.2895 55.6337C61.0714 58.6952 58.7133 61.0538 55.6369 62.2877C51.0301 64.1152 40.0987 63.6935 35.0078 63.6935C29.9169 63.6935 18.9699 64.0996 14.3787 62.2877C11.3179 61.0694 8.95984 58.7108 7.72616 55.6337C5.89905 51.0259 6.32069 40.092 6.32069 35C6.32069 29.908 5.91467 18.9585 7.72616 14.3663C8.94423 11.3048 11.3023 8.94622 14.3787 7.71226C18.9855 5.88475 29.9169 6.30648 35.0078 6.30648C40.0987 6.30648 51.0457 5.90037 55.6369 7.71226C58.6977 8.9306 61.0558 11.2892 62.2895 14.3663C64.1166 18.9741 63.6949 29.908 63.6949 35C63.6949 40.092 64.1166 51.0415 62.2895 55.6337Z" fill="#EDEDED"/>
</svg>
