<svg width="500" height="500" viewBox="0 0 500 500" fill="none" xmlns="http://www.w3.org/2000/svg">
<path d="M211.183 231.179L247.52 231.179L249.246 224.826L212.91 224.826L211.183 231.179Z" fill="#EDEDED"/>
<path d="M227.806 250.239L235.073 250.239L236.799 243.886L229.532 243.886L227.806 250.239Z" fill="#EDEDED"/>
<path d="M217.535 257.799L224.802 257.799L226.529 251.446L219.261 251.446L217.535 257.799Z" fill="#FA4659"/>
<path d="M207.73 243.886L214.997 243.886L220.177 224.825L212.91 224.825L207.73 243.886Z" fill="#EDEDED"/>
<path d="M203 257.799L217.535 257.799L219.261 251.446L204.727 251.446L203 257.799Z" fill="#EDEDED"/>
<path d="M207.73 243.886L229.532 243.886L231.259 237.532L209.457 237.532L207.73 243.886Z" fill="#EDEDED"/>
<path d="M238.076 242.679L245.344 242.679L247.07 236.325L239.803 236.325L238.076 242.679Z" fill="#FA4659"/>
<path d="M237.184 248.306L236.34 251.411L232.787 251.411L229.235 251.411L230.079 248.306L230.923 245.2L234.475 245.2L238.027 245.2L237.184 248.306Z" fill="#EDEDED"/>
<path d="M242.739 254.676L241.895 257.782L238.343 257.782L234.791 257.782L235.634 254.676L236.478 251.571L240.031 251.571L243.583 251.571L242.739 254.676Z" fill="#EDEDED"/>
<path d="M262.374 250.1L262.629 250.16L262.404 250.88C261.784 250.77 261.254 250.715 260.814 250.715C260.154 250.715 259.594 250.95 259.134 251.42C258.254 252.3 257.814 253.615 257.814 255.365C257.814 255.885 257.944 256.275 258.204 256.535C258.464 256.795 258.884 256.925 259.464 256.925C259.814 256.925 260.284 256.865 260.874 256.745L261.159 256.685L261.114 257.405C260.434 257.615 259.794 257.72 259.194 257.72C257.664 257.72 256.899 256.985 256.899 255.515C256.899 254.005 257.214 252.715 257.844 251.645C258.164 251.115 258.579 250.695 259.089 250.385C259.609 250.075 260.154 249.92 260.724 249.92C261.294 249.92 261.844 249.98 262.374 250.1ZM264.662 257.72C263.412 257.72 262.787 257.015 262.787 255.605C262.787 254.295 263.102 253.05 263.732 251.87C264.032 251.3 264.427 250.835 264.917 250.475C265.417 250.105 265.962 249.92 266.552 249.92C267.092 249.92 267.887 250.01 268.937 250.19L269.462 250.28L268.322 255.155C268.182 255.715 268.062 256.385 267.962 257.165L267.902 257.555L267.032 257.585C267.182 256.655 267.277 256.085 267.317 255.875C267.277 255.925 267.222 255.995 267.152 256.085C267.092 256.165 266.962 256.31 266.762 256.52C266.572 256.73 266.377 256.915 266.177 257.075C265.977 257.235 265.737 257.385 265.457 257.525C265.177 257.655 264.912 257.72 264.662 257.72ZM268.427 250.94C267.707 250.79 267.067 250.715 266.507 250.715C265.957 250.715 265.457 250.99 265.007 251.54C264.557 252.09 264.227 252.73 264.017 253.46C263.817 254.18 263.717 254.83 263.717 255.41C263.717 255.98 263.807 256.375 263.987 256.595C264.177 256.815 264.457 256.925 264.827 256.925C265.197 256.925 265.597 256.75 266.027 256.4C266.457 256.05 266.812 255.7 267.092 255.35L267.512 254.81L268.427 250.94ZM269.839 257.57L271.594 250.07H272.479L272.209 251.195C273.169 250.535 274.104 250.11 275.014 249.92L274.789 250.835C274.209 250.975 273.449 251.29 272.509 251.78L272.044 252.02L270.754 257.57H269.839ZM277.793 257.57L279.548 250.07H280.433L280.163 251.195C281.123 250.535 282.058 250.11 282.968 249.92L282.743 250.835C282.163 250.975 281.403 251.29 280.463 251.78L279.998 252.02L278.708 257.57H277.793ZM283.507 255.455C283.507 255.905 283.642 256.26 283.912 256.52C284.192 256.78 284.532 256.91 284.932 256.91C285.702 256.91 286.437 256.82 287.137 256.64L287.497 256.535L287.437 257.27C286.567 257.57 285.737 257.72 284.947 257.72C283.377 257.72 282.592 256.98 282.592 255.5C282.592 254.14 282.917 252.895 283.567 251.765C283.877 251.215 284.297 250.775 284.827 250.445C285.357 250.105 285.957 249.935 286.627 249.935C288.037 249.935 288.742 250.505 288.742 251.645C288.742 252.525 288.402 253.145 287.722 253.505C287.042 253.855 285.977 254.03 284.527 254.03H283.687C283.567 254.53 283.507 255.005 283.507 255.455ZM284.707 253.295C285.807 253.295 286.602 253.18 287.092 252.95C287.592 252.71 287.842 252.275 287.842 251.645C287.842 251.015 287.422 250.7 286.582 250.7C285.272 250.7 284.352 251.565 283.822 253.295H284.707ZM293.917 249.92C295.177 249.92 295.807 250.63 295.807 252.05C295.807 252.9 295.667 253.75 295.387 254.6C295.117 255.44 294.687 256.17 294.097 256.79C293.507 257.41 292.832 257.72 292.072 257.72C291.502 257.72 290.917 257.65 290.317 257.51L290.017 257.45L289.207 260.945H288.322L290.827 250.07H291.697L291.367 251.555C291.457 251.435 291.612 251.265 291.832 251.045C292.062 250.815 292.272 250.63 292.462 250.49C292.982 250.11 293.467 249.92 293.917 249.92ZM293.677 250.73C293.367 250.73 292.997 250.89 292.567 251.21C292.147 251.53 291.802 251.85 291.532 252.17L291.127 252.665L290.182 256.7C290.852 256.85 291.442 256.925 291.952 256.925C292.472 256.925 292.917 256.765 293.287 256.445C293.657 256.115 293.957 255.7 294.187 255.2C294.657 254.14 294.892 253.1 294.892 252.08C294.892 251.18 294.487 250.73 293.677 250.73ZM298.69 257.72C297.44 257.72 296.815 257.015 296.815 255.605C296.815 254.295 297.13 253.05 297.76 251.87C298.06 251.3 298.455 250.835 298.945 250.475C299.445 250.105 299.99 249.92 300.58 249.92C301.12 249.92 301.915 250.01 302.965 250.19L303.49 250.28L302.35 255.155C302.21 255.715 302.09 256.385 301.99 257.165L301.93 257.555L301.06 257.585C301.21 256.655 301.305 256.085 301.345 255.875C301.305 255.925 301.25 255.995 301.18 256.085C301.12 256.165 300.99 256.31 300.79 256.52C300.6 256.73 300.405 256.915 300.205 257.075C300.005 257.235 299.765 257.385 299.485 257.525C299.205 257.655 298.94 257.72 298.69 257.72ZM302.455 250.94C301.735 250.79 301.095 250.715 300.535 250.715C299.985 250.715 299.485 250.99 299.035 251.54C298.585 252.09 298.255 252.73 298.045 253.46C297.845 254.18 297.745 254.83 297.745 255.41C297.745 255.98 297.835 256.375 298.015 256.595C298.205 256.815 298.485 256.925 298.855 256.925C299.225 256.925 299.625 256.75 300.055 256.4C300.485 256.05 300.84 255.7 301.12 255.35L301.54 254.81L302.455 250.94ZM303.867 257.57L305.607 250.07H306.507L304.767 257.57H303.867ZM305.997 248.33L306.282 247.13H307.182L306.912 248.33H305.997ZM306.826 257.57L308.581 250.07H309.466L309.196 251.195C310.156 250.535 311.091 250.11 312.001 249.92L311.776 250.835C311.196 250.975 310.436 251.29 309.496 251.78L309.031 252.02L307.741 257.57H306.826Z" fill="#EDEDED"/>
<path d="M271.2 229.425C269.4 229.125 267.967 228.975 266.9 228.975C265.833 228.975 265.025 229.225 264.475 229.725C263.925 230.225 263.65 230.925 263.65 231.825C263.65 232.392 263.808 232.817 264.125 233.1C264.458 233.367 265.242 233.75 266.475 234.25C267.725 234.75 268.583 235.283 269.05 235.85C269.533 236.417 269.775 237.25 269.775 238.35C269.775 240.233 269.2 241.692 268.05 242.725C266.917 243.758 265.375 244.275 263.425 244.275C262.675 244.275 261.875 244.2 261.025 244.05C260.175 243.917 259.517 243.775 259.05 243.625L258.325 243.4L258.775 241.375C260.692 241.692 262.25 241.85 263.45 241.85C265.767 241.85 266.925 240.792 266.925 238.675C266.925 238.092 266.767 237.667 266.45 237.4C266.133 237.117 265.375 236.733 264.175 236.25C262.992 235.767 262.133 235.233 261.6 234.65C261.083 234.05 260.825 233.208 260.825 232.125C260.825 230.475 261.358 229.142 262.425 228.125C263.492 227.108 264.925 226.6 266.725 226.6C267.475 226.6 268.258 226.667 269.075 226.8C269.908 226.933 270.55 227.067 271 227.2L271.7 227.425L271.2 229.425ZM274.727 244.275C273.71 244.275 272.952 243.975 272.452 243.375C271.968 242.758 271.727 241.942 271.727 240.925C271.727 240.308 271.893 239.242 272.227 237.725L273.652 231.5H276.352L274.977 237.525C274.677 238.725 274.527 239.65 274.527 240.3C274.527 241.383 274.96 241.925 275.827 241.925C276.177 241.925 276.602 241.758 277.102 241.425C277.602 241.075 278.018 240.725 278.352 240.375L278.852 239.85L280.777 231.5H283.477L280.602 244H278.002L278.277 242.35C278.143 242.5 277.968 242.683 277.752 242.9C277.535 243.1 277.11 243.383 276.477 243.75C275.86 244.1 275.277 244.275 274.727 244.275ZM292.273 231.225C293.44 231.225 294.307 231.583 294.873 232.3C295.457 233.017 295.748 234.05 295.748 235.4C295.748 236.733 295.515 238.075 295.048 239.425C294.598 240.758 293.882 241.9 292.898 242.85C291.915 243.783 290.773 244.25 289.473 244.25C288.623 244.25 287.732 244.133 286.798 243.9L286.298 243.775L284.998 249.375H282.323L286.448 231.5H289.098L288.748 233.2C288.882 233.05 289.057 232.867 289.273 232.65C289.49 232.433 289.907 232.142 290.523 231.775C291.157 231.408 291.74 231.225 292.273 231.225ZM291.448 233.55C291.098 233.55 290.64 233.742 290.073 234.125C289.523 234.508 289.057 234.883 288.673 235.25L288.123 235.825L286.823 241.575C287.84 241.825 288.715 241.95 289.448 241.95C290.182 241.95 290.823 241.575 291.373 240.825C291.94 240.058 292.348 239.192 292.598 238.225C292.865 237.242 292.998 236.292 292.998 235.375C292.998 234.158 292.482 233.55 291.448 233.55ZM299.789 240.175C299.789 240.725 299.981 241.158 300.364 241.475C300.748 241.792 301.223 241.95 301.789 241.95C302.989 241.95 304.173 241.85 305.339 241.65L305.989 241.525L305.714 243.575C304.198 244.042 302.664 244.275 301.114 244.275C298.414 244.275 297.064 242.925 297.064 240.225C297.064 237.858 297.589 235.817 298.639 234.1C299.173 233.233 299.889 232.542 300.789 232.025C301.689 231.508 302.714 231.25 303.864 231.25C306.598 231.25 307.964 232.392 307.964 234.675C307.964 236.208 307.414 237.275 306.314 237.875C305.231 238.475 303.456 238.775 300.989 238.775H299.939C299.839 239.142 299.789 239.608 299.789 240.175ZM301.439 236.725C302.839 236.725 303.831 236.575 304.414 236.275C304.998 235.975 305.289 235.45 305.289 234.7C305.289 233.867 304.773 233.45 303.739 233.45C302.006 233.45 300.848 234.542 300.264 236.725H301.439ZM308.183 244L311.058 231.5H313.733L313.308 233.325C313.874 232.875 314.558 232.442 315.358 232.025C316.174 231.592 316.883 231.325 317.483 231.225L316.708 234.025C315.958 234.242 314.883 234.683 313.483 235.35L312.833 235.65L310.883 244H308.183Z" fill="#FA4659"/>
</svg>
