<svg width="60" height="60" viewBox="0 0 60 60" fill="none" xmlns="http://www.w3.org/2000/svg">
<path d="M58.2889 42.3981L45.1637 36.773C44.603 36.5341 43.9798 36.4837 43.3881 36.6296C42.7963 36.7754 42.2679 37.1095 41.8824 37.5816L36.0698 44.6833C26.9474 40.3822 19.6061 33.0408 15.305 23.9185L22.4066 18.1059C22.8797 17.7211 23.2145 17.1927 23.3604 16.6007C23.5064 16.0086 23.4554 15.3851 23.2153 14.8246L17.5902 1.69936C17.3266 1.09514 16.8605 0.601814 16.2722 0.304449C15.6839 0.00708429 15.0102 -0.0756816 14.3674 0.070423L2.17973 2.88297C1.55999 3.02608 1.00706 3.37503 0.611185 3.87285C0.215307 4.37068 -0.000142762 4.98799 7.09724e-08 5.62404C7.09724e-08 35.6832 24.3637 60 54.376 60C55.0122 60.0004 55.6298 59.7851 56.1279 59.3892C56.6259 58.9933 56.975 58.4402 57.1182 57.8203L59.9307 45.6326C60.0759 44.9866 59.9914 44.3103 59.6917 43.72C59.3921 43.1296 58.896 42.6622 58.2889 42.3981V42.3981Z" fill="#EDEDED"/>
</svg>
