<svg width="71" height="70" viewBox="0 0 71 70" fill="none" xmlns="http://www.w3.org/2000/svg">
<path d="M63.3803 0H7.60563C3.40669 0 0 3.35938 0 7.5V62.5C0 66.6406 3.40669 70 7.60563 70H63.3803C67.5792 70 70.9859 66.6406 70.9859 62.5V7.5C70.9859 3.35938 67.5792 0 63.3803 0ZM55.632 24.8125C55.6637 25.25 55.6637 25.7031 55.6637 26.1406C55.6637 39.6875 45.206 55.2969 26.0968 55.2969C20.2025 55.2969 14.7359 53.6094 10.1408 50.7031C10.9806 50.7969 11.7887 50.8281 12.6444 50.8281C17.5088 50.8281 21.9771 49.2031 25.5423 46.4531C20.9789 46.3594 17.1444 43.4062 15.8292 39.3437C17.4296 39.5781 18.8715 39.5781 20.5194 39.1563C15.7658 38.2031 12.2007 34.0781 12.2007 29.0937V28.9687C13.5792 29.7344 15.1954 30.2031 16.8908 30.2656C15.4655 29.3307 14.297 28.0623 13.4897 26.5737C12.6823 25.0851 12.2613 23.4225 12.2641 21.7344C12.2641 19.8281 12.7711 18.0781 13.6743 16.5625C18.7923 22.7812 26.4771 26.8438 35.0968 27.2813C33.6232 20.3281 38.8996 14.6875 45.2377 14.6875C48.2324 14.6875 50.9261 15.9219 52.8275 17.9219C55.1725 17.4844 57.4225 16.625 59.419 15.4531C58.6426 17.8281 57.0106 19.8281 54.8556 21.0938C56.9472 20.875 58.9754 20.2969 60.8451 19.5C59.4349 21.5469 57.6602 23.3594 55.632 24.8125Z" fill="#EDEDED"/>
</svg>
